HIERARCHY
ROOT Hips
{
	OFFSET 0.00000 0.00000 0.00000
	CHANNELS 6 Xposition Yposition Zposition Zrotation Yrotation Xrotation 
	JOINT LHipJoint
	{
		OFFSET 0 0 0
		CHANNELS 3 Zrotation Yrotation Xrotation
		JOINT LeftUpLeg
		{
			OFFSET 1.17584 -1.63585 1.00361
			CHANNELS 3 Zrotation Yrotation Xrotation
			JOINT LeftLeg
			{
				OFFSET 2.23889 -6.15131 0.00000
				CHANNELS 3 Zrotation Yrotation Xrotation
				JOINT LeftFoot
				{
					OFFSET 2.65161 -7.28525 0.00000
					CHANNELS 3 Zrotation Yrotation Xrotation
					JOINT LeftToeBase
					{
						OFFSET 0.24898 -0.68407 1.57235
						CHANNELS 3 Zrotation Yrotation Xrotation
						End Site
						{
							OFFSET 0.00000 -0.00000 0.85838
						}
					}
				}
			}
		}
	}
	JOINT RHipJoint
	{
		OFFSET 0 0 0
		CHANNELS 3 Zrotation Yrotation Xrotation
		JOINT RightUpLeg
		{
			OFFSET -1.15592 -1.63585 1.00361
			CHANNELS 3 Zrotation Yrotation Xrotation
			JOINT RightLeg
			{
				OFFSET -2.34071 -6.43104 0.00000
				CHANNELS 3 Zrotation Yrotation Xrotation
				JOINT RightFoot
				{
					OFFSET -2.59113 -7.11908 0.00000
					CHANNELS 3 Zrotation Yrotation Xrotation
					JOINT RightToeBase
					{
						OFFSET -0.17867 -0.49089 1.70981
						CHANNELS 3 Zrotation Yrotation Xrotation
						End Site
						{
							OFFSET -0.00000 -0.00000 0.89861
						}
					}
				}
			}
		}
	}
	JOINT LowerBack
	{
		OFFSET 0 0 0
		CHANNELS 3 Zrotation Yrotation Xrotation
		JOINT Spine
		{
			OFFSET -0.02255 1.90764 -0.16605
			CHANNELS 3 Zrotation Yrotation Xrotation
			JOINT Spine1
			{
				OFFSET -0.00365 1.92150 -0.04898
				CHANNELS 3 Zrotation Yrotation Xrotation
				JOINT Neck
				{
					OFFSET 0 0 0
					CHANNELS 3 Zrotation Yrotation Xrotation
					JOINT Neck1
					{
						OFFSET 0.00372 1.59170 0.08694
						CHANNELS 3 Zrotation Yrotation Xrotation
						JOINT Head
						{
							OFFSET 0.12558 1.58643 -0.08078
							CHANNELS 3 Zrotation Yrotation Xrotation
							End Site
							{
								OFFSET 0.04211 1.60835 -0.03803
							}
						}
					}
				}
				JOINT LeftShoulder
				{
					OFFSET 0 0 0
					CHANNELS 3 Zrotation Yrotation Xrotation
					JOINT LeftArm
					{
						OFFSET 3.69324 0.96316 0.19077
						CHANNELS 3 Zrotation Yrotation Xrotation
						JOINT LeftForeArm
						{
							OFFSET 4.87796 -0.00000 -0.00000
							CHANNELS 3 Zrotation Yrotation Xrotation
							JOINT LeftHand
							{
								OFFSET 3.23169 -0.00000 0.00000
								CHANNELS 3 Zrotation Yrotation Xrotation
								JOINT LeftFingerBase
								{
									OFFSET 0 0 0
									CHANNELS 3 Zrotation Yrotation Xrotation
									JOINT LeftHandIndex1
									{
										OFFSET 0.73132 -0.00000 0.00000
										CHANNELS 3 Zrotation Yrotation Xrotation
										End Site
										{
											OFFSET 0.58961 -0.00000 0.00000
										}
									}
								}
								JOINT LThumb
								{
									OFFSET 0 0 0
									CHANNELS 3 Zrotation Yrotation Xrotation
									End Site
									{
										OFFSET 0.59861 -0.00000 0.59861
									}
								}
							}
						}
					}
				}
				JOINT RightShoulder
				{
					OFFSET 0 0 0
					CHANNELS 3 Zrotation Yrotation Xrotation
					JOINT RightArm
					{
						OFFSET -3.66103 0.75145 0.08281
						CHANNELS 3 Zrotation Yrotation Xrotation
						JOINT RightForeArm
						{
							OFFSET -4.91430 -0.00000 0.00000
							CHANNELS 3 Zrotation Yrotation Xrotation
							JOINT RightHand
							{
								OFFSET -3.29093 -0.00000 0.00000
								CHANNELS 3 Zrotation Yrotation Xrotation
								JOINT RightFingerBase
								{
									OFFSET 0 0 0
									CHANNELS 3 Zrotation Yrotation Xrotation
									JOINT RightHandIndex1
									{
										OFFSET -0.54512 -0.00000 0.00000
										CHANNELS 3 Zrotation Yrotation Xrotation
										End Site
										{
											OFFSET -0.43949 -0.00000 0.00000
										}
									}
								}
								JOINT RThumb
								{
									OFFSET 0 0 0
									CHANNELS 3 Zrotation Yrotation Xrotation
									End Site
									{
										OFFSET -0.44620 -0.00000 0.44620
									}
								}
							}
						}
					}
				}
			}
		}
	}
}
MOTION
Frames: 15
Frame Time: .0083333
10.8440 14.0610 -5.4413 401.4790 -93.4617 -376.4380 0.0000 0.0000 0.0000 -8.6265 7.1706 -98.1013 7.8653 16.0193 52.0761 0.1281 9.2834 8.5990 2.5354 -9.9020 -28.6600 0.0000 0.0000 0.0000 -6.3592 -33.3117 -32.7650 -11.9295 -18.3607 65.7651 0.7083 15.8015 -0.3312 -0.9628 6.2476 -17.5045 9.1921 3.5909 5.3594 0.2422 4.3512 9.6322 -4.7854 2.6351 7.9678 1.2567 6.1749 -2.5684 -12.8829 5.9341 -20.4166 -4.4582 3.3963 -5.2174 0.0000 0.0000 0.0000 -24.8762 52.2400 48.1292 11.4310 -18.9458 -1.9135 -0.0000 0.0000 -46.6573 33.5369 0.0425 0.0282 -7.1250 0.0000 -0.0000 5.4933 30.0079 -2.0180 0.0000 0.0000 0.0000 67.8414 -66.9497 80.7706 -24.4089 35.5937 -7.9433 0.0000 0.0000 0.6472 -22.8796 -24.4188 9.8959 7.1250 -0.0000 -0.0000 7.1417 -56.0708 -1.9464
10.5124 13.9581 -5.4179 449.4790 -93.4670 -425.7330 0.0000 0.0000 0.0000 -11.6922 6.5667 -99.2688 7.6846 15.8823 51.4185 0.1678 10.1561 9.6052 2.5350 -9.9012 -28.6574 0.0000 0.0000 0.0000 -7.4440 -33.2098 -26.5684 -11.7335 -18.2757 65.1417 0.5836 14.3788 -0.3032 -0.9467 6.1965 -17.3557 9.1479 3.9890 5.1515 0.4394 4.8996 9.3450 -4.5240 2.8903 7.8271 1.1987 5.7637 -2.7243 -12.6525 5.3726 -20.5909 -4.3665 3.1121 -5.2983 -0.0000 0.0000 0.0000 -25.2979 53.3079 47.2195 11.3474 -18.8187 -1.8864 -0.0000 0.0000 -46.3016 33.3833 -0.1086 -0.0716 -7.1250 0.0000 -0.0000 5.3627 29.8286 -1.9926 -0.0000 0.0000 0.0000 70.4533 -66.6957 77.2225 -23.1294 34.2300 -7.2110 0.0000 0.0000 0.1351 -22.0670 -24.9862 9.7168 7.1250 -0.0000 -0.0000 8.2426 -56.4854 -2.3321
10.1771 13.8445 -5.4014 478.2200 -95.2747 -455.9440 0.0000 0.0000 0.0000 -14.6547 6.0789 -99.9278 7.6585 15.8622 51.3231 0.2132 10.7712 10.4951 2.3993 -9.6525 -27.8587 0.0000 0.0000 0.0000 -8.2982 -32.6549 -20.0449 -11.4543 -18.1503 64.2482 0.4557 12.9441 -0.7752 -0.9704 6.2715 -17.5742 8.8995 4.3500 5.0123 0.6522 5.4070 9.0203 -4.1443 3.1063 7.5660 0.9807 5.3391 -2.8840 -12.2820 4.8130 -20.7514 -4.2020 2.8321 -5.3842 -0.0000 -0.0000 0.0000 -25.9967 54.2935 45.5168 11.1695 -18.5475 -1.8295 -0.0000 0.0000 -45.4461 33.2281 -0.3265 -0.2139 -7.1250 0.0000 -0.0000 5.2270 29.5703 -1.9741 -0.0000 -0.0000 0.0000 73.1849 -66.1961 73.2587 -21.7407 32.6827 -6.4452 0.0000 -0.0000 -0.3656 -21.3461 -25.6964 9.6178 7.1250 -0.0000 -0.0000 9.3308 -57.0581 -2.7731
9.8392 13.7207 -5.3910 490.3870 -97.6729 -469.7230 0.0000 0.0000 0.0000 -17.2346 5.7495 -100.0305 7.7912 15.9635 51.8072 0.2786 10.6899 11.2523 1.9568 -8.7755 -25.0955 0.0000 0.0000 0.0000 -8.7495 -31.6854 -13.3934 -11.1044 -17.9858 63.1200 0.3286 11.4770 -1.6112 -0.9921 6.3391 -17.7716 8.4849 4.6515 4.9134 0.8689 5.8424 8.6502 -3.6832 3.2738 7.1924 0.5987 4.8952 -3.0527 -11.7438 4.2549 -20.8840 -3.9540 2.5543 -5.4679 -0.0000 0.0000 0.0000 -26.9453 55.2383 43.1557 10.9181 -18.1626 -1.7503 -0.0000 0.0000 -44.2837 33.0258 -0.5331 -0.3465 -7.1250 0.0000 -0.0000 5.0556 29.3270 -1.9383 -0.0000 0.0000 0.0000 75.6432 -65.4625 69.3403 -20.3232 31.0298 -5.6970 0.0000 -0.0000 -0.7312 -20.8540 -26.4276 9.6227 7.1250 -0.0000 -0.0000 10.2127 -57.6936 -3.1958
9.4986 13.5904 -5.3865 496.2130 -100.1960 -477.2550 0.0000 0.0000 0.0000 -19.1983 5.6089 -99.5883 8.0775 16.1759 52.8412 0.3600 9.1928 11.6467 1.5293 -7.8079 -22.1321 0.0000 0.0000 0.0000 -8.6368 -30.3384 -6.8408 -10.7046 -17.7875 61.8184 0.1990 9.8803 -2.7451 -0.9768 6.2916 -17.6330 7.9641 4.9226 4.8037 1.0203 6.2446 8.2232 -3.2419 3.4228 6.7463 0.1902 4.4110 -3.1741 -11.0335 3.6719 -21.0320 -3.6460 2.2587 -5.5662 0.0000 -0.0000 0.0000 -27.8707 56.0763 40.5095 10.6318 -17.7216 -1.6621 -0.0000 0.0000 -43.1127 32.8097 -0.7154 -0.4612 -7.1250 0.0000 -0.0000 4.8755 29.1136 -1.8936 0.0000 -0.0000 0.0000 77.9833 -64.5199 65.4519 -18.9135 29.3110 -4.9884 0.0000 -0.0000 -0.8623 -20.5697 -27.0505 9.6851 7.1250 -0.0000 -0.0000 10.8406 -58.2588 -3.5431
9.1552 13.4596 -5.3860 499.3510 -102.7030 -482.1310 0.0000 0.0000 0.0000 -20.4267 5.6330 -98.6733 8.5045 16.4781 54.3603 0.3800 6.2844 11.1627 1.0471 -6.5073 -18.2638 0.0000 0.0000 0.0000 -7.8498 -28.7125 -0.5886 -10.2804 -17.5645 60.4215 0.0665 8.0261 -4.1046 -0.8842 5.9942 -16.7675 7.2545 5.1261 4.5779 1.1830 6.5434 7.8034 -2.6844 3.5145 6.3308 -0.3747 3.9261 -3.4463 -10.1897 3.1132 -21.1575 -3.2639 1.9727 -5.6313 -0.0000 -0.0000 0.0000 -29.2119 56.8289 37.2541 10.3007 -17.2086 -1.5627 -0.0000 0.0000 -41.9850 32.6209 -0.8192 -0.5243 -7.1250 0.0000 -0.0000 4.7221 28.9934 -1.8471 -0.0000 -0.0000 0.0000 79.6809 -63.2734 62.0048 -17.5492 27.5761 -4.3385 0.0000 -0.0000 -0.7241 -20.3738 -27.3849 9.6937 7.1250 -0.0000 -0.0000 11.2328 -58.5507 -3.7524
8.8102 13.3332 -5.3855 501.3030 -105.1620 -485.7910 0.0000 0.0000 0.0000 -20.9499 5.7131 -97.4081 9.0578 16.8448 56.2899 0.2667 2.4732 9.2133 0.6045 -4.9770 -13.8429 0.0000 0.0000 0.0000 -6.3907 -26.9877 5.1940 -9.8707 -17.3365 59.0554 -0.0571 5.8509 -5.5622 -0.6647 5.2139 -14.5197 6.5465 5.3086 4.2269 1.2320 6.8140 7.3472 -2.2392 3.6034 5.9569 -0.7836 3.3862 -3.7653 -9.2794 2.5007 -21.2919 -2.8837 1.6444 -5.6819 -0.0000 -0.0000 0.0000 -30.4477 57.2872 33.9085 9.9725 -16.6966 -1.4670 -0.0000 0.0000 -41.1541 32.5126 -0.8378 -0.5340 -7.1250 0.0000 -0.0000 4.6367 28.9730 -1.8158 -0.0000 -0.0000 0.0000 81.5279 -61.7906 58.2880 -16.2145 25.8106 -3.7389 0.0000 -0.0000 -0.2923 -20.2737 -27.5918 9.7087 7.1250 -0.0000 -0.0000 11.4555 -58.7353 -3.8789
8.4642 13.2164 -5.3815 502.5350 -107.6110 -488.6660 0.0000 0.0000 0.0000 -20.7137 5.7348 -96.0038 9.7218 17.2504 58.5543 0.0778 -1.0718 5.7779 0.2618 -3.2915 -9.0915 0.0000 0.0000 0.0000 -4.2424 -25.3016 10.3511 -9.5284 -17.1360 57.9003 -0.1595 3.4146 -7.1358 -0.3881 4.0006 -11.0784 5.8679 5.4328 3.7492 1.2298 7.0017 6.8804 -1.8539 3.6599 5.6463 -1.0661 2.8290 -4.1254 -8.4026 1.8547 -21.5393 -2.5359 1.2930 -5.7502 0.0000 0.0000 0.0000 -31.8825 57.4349 30.1384 9.6454 -16.1830 -1.3745 -0.0000 0.0000 -40.5215 32.5102 -0.8054 -0.5132 -7.1250 0.0000 -0.0000 4.6368 29.0115 -1.8116 0.0000 0.0000 0.0000 83.2726 -59.9961 54.4241 -14.9194 24.0338 -3.1931 0.0000 0.0000 0.3358 -20.2987 -27.7476 9.7711 7.1250 -0.0000 -0.0000 11.5159 -58.8969 -3.9444
8.1233 13.1063 -5.3720 503.4050 -110.0810 -491.0550 0.0000 0.0000 0.0000 -19.7132 5.4618 -94.6729 10.4835 17.6729 61.0925 -0.0331 -3.2283 1.3449 0.0739 -1.7535 -4.8250 0.0000 0.0000 0.0000 -1.5267 -23.8073 14.6800 -9.3273 -17.0138 57.2152 -0.2299 0.8807 -8.7878 -0.1430 2.4370 -6.7149 5.3241 5.4967 3.2164 1.1473 7.1121 6.3725 -1.6224 3.6903 5.3476 -1.2431 2.2589 -4.4923 -7.5258 1.1843 -21.9277 -2.2068 0.9240 -5.8532 0.0000 0.0000 0.0000 -33.3501 57.1993 26.2810 9.3683 -15.7454 -1.2982 -0.0000 0.0000 -40.2516 32.6001 -0.7181 -0.4592 -7.1250 0.0000 -0.0000 4.7120 29.1134 -1.8297 0.0000 0.0000 0.0000 85.0690 -57.8990 50.1992 -13.6803 22.2758 -2.7057 0.0000 0.0000 1.1110 -20.2905 -28.0006 9.8472 7.1250 -0.0000 -0.0000 11.6689 -59.1480 -4.0681
7.7935 13.0028 -5.3588 504.1660 -112.5020 -493.1440 0.0000 0.0000 0.0000 -18.1335 4.7737 -93.6008 11.3241 18.0901 63.8298 0.0170 -3.5592 -3.2217 0.0070 -0.5416 -1.4883 0.0000 0.0000 0.0000 1.4958 -22.5642 17.9457 -9.3454 -17.0249 57.2772 -0.2711 -1.5099 -10.5055 -0.0162 0.8217 -2.2583 4.8634 5.5167 2.6898 0.9453 7.1713 5.8053 -1.5631 3.7037 5.0091 -1.3141 1.6803 -4.7237 -6.6717 0.4786 -22.5821 -1.9052 0.5379 -6.0564 -0.0000 0.0000 0.0000 -34.7848 56.5523 22.6171 9.1778 -15.4433 -1.2470 -0.0000 0.0000 -40.3899 32.7355 -0.6155 -0.3957 -7.1250 0.0000 -0.0000 4.8239 29.2329 -1.8597 -0.0000 0.0000 0.0000 86.9218 -55.4919 45.5879 -12.5108 20.5662 -2.2785 0.0000 0.0000 2.0474 -20.5385 -28.3865 10.0993 7.1250 -0.0000 -0.0000 11.6223 -59.5909 -4.1751
7.4789 12.9076 -5.3451 505.1750 -114.7710 -495.2320 0.0000 0.0000 0.0000 -16.3099 3.6426 -92.8531 12.2081 18.4772 66.6469 0.1619 -2.4717 -7.1476 0.0000 0.0230 0.0633 0.0000 0.0000 0.0000 4.4572 -21.6087 19.9864 -9.6501 -17.2083 58.3124 -0.2999 -3.5219 -12.2534 -0.0152 -0.7957 2.1867 4.3232 5.5020 2.2028 0.5693 7.1927 5.1855 -1.6465 3.6995 4.6064 -1.2581 1.0945 -4.6961 -5.8503 -0.2686 -23.5840 -1.6351 0.1323 -6.4100 -0.0000 0.0000 0.0000 -36.1705 55.4196 19.2466 9.0480 -15.2368 -1.2127 -0.0000 0.0000 -40.7322 32.8103 -0.5884 -0.3793 -7.1250 0.0000 -0.0000 4.8839 29.2641 -1.8793 -0.0000 0.0000 0.0000 88.8526 -52.7189 40.5528 -11.4062 18.9082 -1.9055 0.0000 0.0000 3.1937 -21.1947 -28.9160 10.6195 7.1250 -0.0000 -0.0000 11.2127 -60.2760 -4.2092
7.1820 12.8225 -5.3347 506.4780 -116.7600 -497.3590 0.0000 0.0000 0.0000 -14.5191 2.2115 -92.3676 13.0880 18.8137 69.3986 0.3005 -0.7656 -10.1127 0.0063 0.5142 1.4131 0.0000 0.0000 0.0000 7.0455 -20.8438 20.7479 -10.2778 -17.5631 60.4128 -0.3447 -4.9224 -14.0021 -0.1141 -2.1778 5.9973 3.5304 5.4693 1.7609 0.0260 7.1934 4.5546 -1.7683 3.6793 4.1590 -1.1461 0.5273 -4.4039 -5.0534 -1.0152 -24.9166 -1.3775 -0.2709 -6.9153 -0.0000 -0.0000 0.0000 -37.6615 53.7557 16.0675 8.9227 -15.0372 -1.1800 -0.0000 0.0000 -40.8866 32.6992 -0.6259 -0.4018 -7.1250 0.0000 -0.0000 4.7949 29.2211 -1.8498 -0.0000 -0.0000 0.0000 90.6492 -49.5108 35.2758 -10.3567 17.2956 -1.5793 0.0000 0.0000 4.6662 -22.2287 -29.4992 11.3781 7.1250 -0.0000 -0.0000 10.4071 -61.1132 -4.1101
6.9035 12.7529 -5.3265 507.9530 -118.3540 -499.3670 0.0000 0.0000 0.0000 -12.9482 0.6977 -92.0534 13.9091 19.0862 71.9266 0.4074 0.7310 -12.3437 0.0067 0.5266 1.4471 0.0000 0.0000 0.0000 9.0932 -20.0851 20.1951 -11.2300 -18.0458 63.5263 -0.4223 -5.6413 -15.6407 -0.2486 -3.2081 8.8585 2.4944 5.4817 1.3010 -0.7210 7.2534 3.9074 -1.9601 3.6854 3.7090 -0.9210 -0.0382 -3.9047 -4.2826 -1.7625 -26.4072 -1.1363 -0.6820 -7.5131 -0.0000 0.0000 0.0000 -39.0679 51.5031 13.4266 8.7671 -14.7885 -1.1399 -0.0000 0.0000 -40.5945 32.3861 -0.8190 -0.5194 -7.1250 0.0000 -0.0000 4.5393 28.9972 -1.7748 -0.0000 0.0000 0.0000 92.3860 -45.8350 29.6386 -9.3303 15.6853 -1.2880 0.0000 0.0000 6.7488 -23.4980 -30.0275 12.2743 7.1250 -0.0000 -0.0000 9.2788 -61.9657 -3.8471
6.6421 12.7043 -5.3142 509.4240 -119.4690 -501.1900 0.0000 0.0000 0.0000 -11.6917 -0.6317 -91.7027 14.6351 19.2955 74.1352 0.4985 1.7021 -14.0630 0.0010 0.2022 0.5555 0.0000 0.0000 0.0000 10.4881 -19.1577 18.5513 -12.4582 -18.5777 67.4340 -0.5435 -5.6203 -17.1103 -0.3701 -3.9075 10.8166 1.2000 5.4752 0.7614 -1.5126 7.2801 3.3453 -2.0424 3.6700 3.3680 -0.9166 -0.5125 -3.4366 -3.5035 -2.3726 -27.8465 -0.8473 -1.0140 -8.0932 0.0000 0.0000 0.0000 -40.9943 48.8146 10.8315 8.5166 -14.3867 -1.0768 -0.0000 0.0000 -39.5523 31.9112 -1.0656 -0.6635 -7.1250 0.0000 -0.0000 4.1559 28.7146 -1.6521 0.0000 0.0000 0.0000 93.3845 -41.6437 24.2020 -8.3246 14.0776 -1.0296 0.0000 0.0000 9.5443 -24.8843 -30.4951 13.2456 7.1250 -0.0000 -0.0000 7.9423 -62.8007 -3.4451
6.3992 12.6790 -5.2925 510.7320 -120.0500 -502.7860 0.0000 0.0000 0.0000 -10.7875 -1.6027 -91.1128 15.2467 19.4495 75.9787 0.6044 2.1361 -15.6137 0.0028 -0.3391 -0.9317 0.0000 0.0000 0.0000 11.2167 -17.9227 16.0465 -13.8907 -19.0805 71.8703 -0.6938 -4.9417 -18.2985 -0.5251 -4.6439 12.8957 -0.1164 5.5611 0.1942 -2.4273 7.4290 2.8228 -2.2273 3.7184 3.1066 -0.7748 -0.9552 -2.9304 -2.8596 -2.9392 -29.1079 -0.6172 -1.3309 -8.6274 -0.0000 0.0000 0.0000 -42.8381 45.6079 9.0825 8.1901 -13.8606 -0.9972 -0.0000 0.0000 -38.0489 31.4116 -1.3657 -0.8339 -7.1250 0.0000 -0.0000 3.7523 28.3723 -1.5215 -0.0000 0.0000 0.0000 94.1602 -37.0202 18.3452 -7.3333 12.4665 -0.8020 0.0000 0.0000 13.2991 -26.3151 -30.8908 14.2468 7.1250 -0.0000 -0.0000 6.4642 -63.5883 -2.9202
